# xmcd CD database file
#
# Track frame offsets:
#	150
#	20759
#	43946
#	64100
#	83000
#	99013
#	121325
#	142063
#	163076
#
# Disc length: 2624 seconds
#
# Revision: 0
# Processed by: cddbd v1.5.2PL0 Copyright (c) Steve Scherf et al.
# Submitted via: CDex 1.70beta2
#
DISCID=750a3e09
DTITLE=La Turbo - Flagship
DYEAR=2007
DGENRE=Jazz
TTITLE0=カルナヴァル
TTITLE1=stoic paradise
TTITLE2=origin
TTITLE3=ハンモックムーン
TTITLE4=ｗave
TTITLE5=(subway for) Deepest South
TTITLE6=Long and Slow
TTITLE7=燦日
TTITLE8=カルナヴァル(Long Version)---bonus track
EXTD=YEAR: 2007
EXTT0=
EXTT1=
EXTT2=
EXTT3=
EXTT4=
EXTT5=
EXTT6=
EXTT7=
EXTT8=
PLAYORDER=
